<?xml version="1.0" encoding="UTF-8"?>
<!DOCTYPE svg PUBLIC "-//W3C//DTD SVG 1.1//EN" "http://www.w3.org/Graphics/SVG/1.1/DTD/svg11.dtd">
<svg xmlns="http://www.w3.org/2000/svg" version="1.1" width="512px" height="512px" style="shape-rendering:geometricPrecision; text-rendering:geometricPrecision; image-rendering:optimizeQuality; fill-rule:evenodd; clip-rule:evenodd" xmlns:xlink="http://www.w3.org/1999/xlink">
<g><path style="opacity:0.931" fill="#4a332f" d="M 132.5,106.5 C 133.966,105.653 134.8,104.32 135,102.5C 136.651,104.402 136.984,106.402 136,108.5C 173.981,82.3969 216.148,68.8969 262.5,68C 274.776,60.7963 287.943,55.963 302,53.5C 304.3,53.4944 306.466,53.9944 308.5,55C 314.328,60.3259 318.661,66.6592 321.5,74C 324.372,74.3148 327.205,74.8148 330,75.5C 330.95,74.9777 331.784,74.311 332.5,73.5C 334.641,74.8076 336.641,76.3076 338.5,78C 364.164,85.4938 386.83,98.1605 406.5,116C 415.364,124.53 423.864,133.363 432,142.5C 435.883,148.061 438.383,153.894 439.5,160C 444.341,168.516 448.508,177.349 452,186.5C 453.613,185.378 454.78,185.878 455.5,188C 454.833,188.667 454.167,189.333 453.5,190C 463.843,222.129 466.51,254.129 461.5,286C 461.305,288.793 461.971,291.293 463.5,293.5C 462.811,295.444 462.311,297.444 462,299.5C 461.111,298.112 460.611,298.278 460.5,300C 462.178,301.932 462.678,304.098 462,306.5C 460.984,305.366 460.317,305.699 460,307.5C 459.519,311.531 458.853,315.531 458,319.5C 457.804,321.286 456.971,322.619 455.5,323.5C 453.011,319.559 451.177,315.225 450,310.5C 449.667,310.833 449.333,311.167 449,311.5C 448.667,309.833 448.333,308.167 448,306.5C 447.144,312.403 445.477,318.069 443,323.5C 438.683,332.803 434.35,342.136 430,351.5C 428.907,353.349 427.574,355.016 426,356.5C 425.218,366.799 426.052,376.966 428.5,387C 427.749,389.912 426.082,392.079 423.5,393.5C 421.492,379.438 419.825,365.438 418.5,351.5C 418.808,349.076 418.474,346.743 417.5,344.5C 410.133,351.84 402.8,359.173 395.5,366.5C 394.883,366.611 394.383,366.944 394,367.5C 393.963,374.327 392.963,380.994 391,387.5C 387.379,393.613 383.212,399.28 378.5,404.5C 380.678,412.355 383.011,420.022 385.5,427.5C 384.055,429.063 382.389,430.396 380.5,431.5C 379.223,423.273 377.056,415.273 374,407.5C 368.279,412.221 362.279,416.554 356,420.5C 355.567,428.509 355.734,436.509 356.5,444.5C 355.71,445.401 354.71,446.068 353.5,446.5C 353.165,438.476 352.498,430.476 351.5,422.5C 336.231,429.651 320.231,434.317 303.5,436.5C 299.083,436.607 294.749,437.274 290.5,438.5C 293.373,438.876 296.373,438.876 299.5,438.5C 306.074,440.26 309.907,444.593 311,451.5C 314.003,454.067 316.836,456.734 319.5,459.5C 317.194,459.993 314.861,460.326 312.5,460.5C 310.977,457.636 308.643,455.969 305.5,455.5C 304.81,446.808 300.144,442.808 291.5,443.5C 290.926,447.267 292.093,450.267 295,452.5C 295.499,456.486 295.666,460.486 295.5,464.5C 293.435,464.517 291.435,464.85 289.5,465.5C 289.217,464.711 288.717,464.044 288,463.5C 287.667,456.833 287.333,450.167 287,443.5C 281.836,439.699 276.002,437.866 269.5,438C 268.692,437.692 268.025,437.192 267.5,436.5C 270.642,435.833 273.642,435.166 276.5,434.5C 300.385,434.556 323.385,430.056 345.5,421C 358.869,415.062 370.369,406.562 380,395.5C 385.692,388.093 388.358,379.759 388,370.5C 383.526,375.301 378.36,378.301 372.5,379.5C 379.144,365.874 384.977,351.874 390,337.5C 390.232,326.147 390.732,314.814 391.5,303.5C 390.593,297.382 389.259,291.382 387.5,285.5C 386.738,286.628 386.071,287.795 385.5,289C 380.569,289.613 375.736,289.113 371,287.5C 370.167,287.833 369.333,288.167 368.5,288.5C 375.857,299.639 374.857,310.139 365.5,320C 350.139,327.631 335.473,326.631 321.5,317C 313.011,306.963 312.178,296.463 319,285.5C 320.5,284 322,282.5 323.5,281C 320.377,280.794 317.377,280.127 314.5,279C 311.846,274.753 313.179,272.253 318.5,271.5C 340.77,274.358 363.437,278.024 386.5,282.5C 381.971,264.413 376.138,246.746 369,229.5C 355.3,224.367 341.133,221.034 326.5,219.5C 326.709,218.914 327.043,218.414 327.5,218C 329,217.833 330.5,217.667 332,217.5C 343.707,218.648 355.207,220.481 366.5,223C 359.573,207.645 351.74,192.811 343,178.5C 339,173.833 335,169.167 331,164.5C 328.862,196.998 321.696,228.332 309.5,258.5C 308.167,258.5 307.5,257.833 307.5,256.5C 319.093,221.984 325.759,186.65 327.5,150.5C 326.657,126.403 323.157,102.736 317,79.5C 314.716,71.76 310.55,65.26 304.5,60C 288.149,61.8395 272.816,67.0062 258.5,75.5C 192.596,74.3783 140.096,100.045 101,152.5C 95.9326,160.578 91.266,168.911 87,177.5C 74.2644,218.375 70.9311,260.042 77,302.5C 78.9454,321.656 81.2787,340.99 84,360.5C 84.4994,366.157 84.6661,371.824 84.5,377.5C 78.0116,371.701 75.345,364.534 76.5,356C 73.9763,352.23 73.9763,348.563 76.5,345C 75.898,342.964 74.898,341.13 73.5,339.5C 76.2821,336.416 75.9488,333.75 72.5,331.5C 73.585,330.216 74.2517,328.716 74.5,327C 73.959,323.172 73.459,319.339 73,315.5C 72.1072,316.711 71.2739,316.711 70.5,315.5C 71.585,314.216 72.2517,312.716 72.5,311C 71.8921,299.771 70.7254,288.605 69,277.5C 66.5521,245.199 69.8854,213.533 79,182.5C 83.141,174.028 86.8077,165.362 90,156.5C 95.9897,146.927 102.656,138.594 110,131.5C 110.483,130.552 110.649,129.552 110.5,128.5C 117.94,126.01 119.774,121.343 116,114.5C 109.539,107.226 101.372,103.392 91.5,103C 85.8074,102.595 80.1407,102.928 74.5,104C 65.9369,110.881 60.6036,120.381 58.5,132.5C 59.5577,137.119 60.2244,141.786 60.5,146.5C 55.506,145.172 50.8394,143.005 46.5,140C 18.0719,120.125 10.9052,94.2921 25,62.5C 34.0349,48.5698 46.5349,39.4032 62.5,35C 70.4141,34.2671 78.2474,33.1005 86,31.5C 93.698,34.0434 100.865,36.8767 107.5,40C 114.14,45.5945 120.306,51.7612 126,58.5C 129.252,64.5027 132.086,70.6694 134.5,77C 133.48,80.7387 133.813,84.4054 135.5,88C 134.249,91.0468 134.249,94.0468 135.5,97C 133.807,99.9345 132.807,103.101 132.5,106.5 Z M 132.5,106.5 C 132.33,107.822 132.663,108.989 133.5,110C 132.576,111.489 131.576,111.656 130.5,110.5C 130.994,108.974 131.661,107.641 132.5,106.5 Z"/></g>
<g><path style="opacity:1" fill="#ecd7d4" d="M 38.5,119.5 C 37.1429,120.59 36.1429,121.924 35.5,123.5C 30.9989,117.841 27.4989,111.508 25,104.5C 21.2895,82.6898 27.7895,64.1898 44.5,49C 60.7949,38.4706 78.1283,36.1372 96.5,42C 123.948,57.0778 133.781,79.9111 126,110.5C 125,112.5 124,114.5 123,116.5C 113.487,103.663 100.653,97.6627 84.5,98.5C 66.7928,98.3416 51.6262,104.342 39,116.5C 38.5172,117.448 38.3505,118.448 38.5,119.5 Z"/></g>
<g><path style="opacity:1" fill="#ecd7d4" d="M 307.5,256.5 C 306.301,259.563 304.801,262.563 303,265.5C 303.778,251.342 303.612,237.175 302.5,223C 304.368,214.731 307.034,206.731 310.5,199C 310.167,198.833 309.833,198.667 309.5,198.5C 300.895,219.048 289.729,238.048 276,255.5C 271.614,260.389 266.78,264.722 261.5,268.5C 260.675,253.495 261.008,238.495 262.5,223.5C 261.001,200.527 260.167,177.527 260,154.5C 258.924,143.717 257.424,133.717 255.5,124.5C 250.22,130.721 246.22,137.721 243.5,145.5C 242.178,145.33 241.011,145.663 240,146.5C 228.903,170.542 215.403,193.042 199.5,214C 189.43,215.788 180.264,219.621 172,225.5C 171.399,226.965 171.899,227.965 173.5,228.5C 179.581,224.878 186.081,222.212 193,220.5C 193.5,220.833 194,221.167 194.5,221.5C 189.308,229.225 183.642,236.558 177.5,243.5C 176.761,243.369 176.094,243.536 175.5,244C 170.644,249.854 165.477,255.354 160,260.5C 159.333,254.167 159.333,247.833 160,241.5C 161.65,233.583 162.65,225.583 163,217.5C 165.445,210.626 167.278,203.626 168.5,196.5C 177.973,169.19 193.306,145.69 214.5,126C 217.672,124.248 220.672,122.248 223.5,120C 222.5,119.333 221.5,119.333 220.5,120C 205.624,130.542 193.124,143.376 183,158.5C 167.92,182.037 158.42,207.537 154.5,235C 152.874,241.334 151.541,247.501 150.5,253.5C 150.588,270.201 150.588,286.867 150.5,303.5C 152.663,317.096 155.496,330.763 159,344.5C 160.95,350.402 163.45,356.068 166.5,361.5C 166.167,361.833 165.833,362.167 165.5,362.5C 149.288,351.126 136.455,336.792 127,319.5C 126.282,318.549 125.449,318.383 124.5,319C 130.578,331.64 138.745,342.807 149,352.5C 161.552,383.375 169.719,415.375 173.5,448.5C 154.679,440.981 137.679,430.648 122.5,417.5C 115.574,391.461 110.074,365.128 106,338.5C 103.203,315.729 101.369,292.896 100.5,270C 101.475,246.944 104.308,224.111 109,201.5C 116.286,173.747 130.12,149.914 150.5,130C 149.5,129.333 148.5,129.333 147.5,130C 133.967,142.215 123.467,156.715 116,173.5C 105.724,196.698 99.8909,220.864 98.5,246C 95.9307,266.044 95.5974,286.044 97.5,306C 94.2988,310.897 91.4655,316.064 89,321.5C 85.0053,338.539 87.0053,354.872 95,370.5C 98.8224,377.179 104.156,382.179 111,385.5C 113.486,394.775 115.652,404.109 117.5,413.5C 104.351,403.356 93.3513,391.356 84.5,377.5C 84.6661,371.824 84.4994,366.157 84,360.5C 81.2787,340.99 78.9454,321.656 77,302.5C 70.9311,260.042 74.2644,218.375 87,177.5C 91.266,168.911 95.9326,160.578 101,152.5C 140.096,100.045 192.596,74.3783 258.5,75.5C 272.816,67.0062 288.149,61.8395 304.5,60C 310.55,65.26 314.716,71.76 317,79.5C 323.157,102.736 326.657,126.403 327.5,150.5C 325.759,186.65 319.093,221.984 307.5,256.5 Z"/></g>
<g><path style="opacity:1" fill="#ecd7d4" d="M 414.5,133.5 C 418.205,138.867 422.538,143.534 427.5,147.5C 444.298,174.389 454.465,203.723 458,235.5C 460.914,261.134 459.914,286.467 455,311.5C 451.783,301.517 449.617,291.183 448.5,280.5C 449.465,270.336 449.465,260.336 448.5,250.5C 448.705,233.383 445.372,217.05 438.5,201.5C 438.167,202 437.833,202.5 437.5,203C 444.058,223.289 447.058,244.122 446.5,265.5C 446.5,271.5 446.5,277.5 446.5,283.5C 444.409,307.175 437.076,329.175 424.5,349.5C 422.025,338.785 423.525,328.785 429,319.5C 429.991,317.553 430.325,315.553 430,313.5C 419.108,337.577 402.774,357.243 381,372.5C 390.955,347.029 398.288,320.695 403,293.5C 403.832,285.479 403.665,277.479 402.5,269.5C 401.764,282.151 399.931,294.818 397,307.5C 391.281,285.34 384.947,263.34 378,241.5C 376.885,238.105 375.385,234.939 373.5,232C 374.5,231.333 375.5,231.333 376.5,232C 380.386,234.11 384.386,235.943 388.5,237.5C 389.737,237.444 390.737,236.944 391.5,236C 385.356,232.427 379.023,229.093 372.5,226C 371.619,225.292 370.953,224.458 370.5,223.5C 371.391,222.739 372.058,221.739 372.5,220.5C 364.817,194.95 354.317,170.617 341,147.5C 338.716,143.051 335.549,139.384 331.5,136.5C 331.384,117.451 328.717,98.7844 323.5,80.5C 350.55,85.8598 374.55,97.3598 395.5,115C 402.294,120.723 408.627,126.89 414.5,133.5 Z"/></g>
<g><path style="opacity:0.012" fill="#2d2c09" d="M 66.5,114.5 C 67.7733,115.077 67.7733,115.743 66.5,116.5C 65.537,116.03 65.537,115.363 66.5,114.5 Z"/></g>
<g><path style="opacity:1" fill="#cd9793" d="M 35.5,123.5 C 36.1429,121.924 37.1429,120.59 38.5,119.5C 44.9477,113.435 52.2811,108.601 60.5,105C 62.5,104.333 64.5,104.333 66.5,105C 56.5532,114.665 52.2199,126.498 53.5,140.5C 46.849,135.515 40.849,129.849 35.5,123.5 Z"/></g>
<g><path style="opacity:1" fill="#755e5a" d="M 414.5,133.5 C 420.168,136.838 424.501,141.504 427.5,147.5C 422.538,143.534 418.205,138.867 414.5,133.5 Z"/></g>
<g><path style="opacity:1" fill="#fabab6" d="M 331.5,136.5 C 335.549,139.384 338.716,143.051 341,147.5C 354.317,170.617 364.817,194.95 372.5,220.5C 372.058,221.739 371.391,222.739 370.5,223.5C 363.603,208.706 356.436,194.039 349,179.5C 344.041,171.223 338.375,163.556 332,156.5C 331.5,149.842 331.334,143.175 331.5,136.5 Z"/></g>
<g><path style="opacity:1" fill="#fae8d4" d="M 276.5,434.5 C 272.649,433.971 269.149,434.638 266,436.5C 264.301,435.594 262.467,435.261 260.5,435.5C 234.384,430.946 210.384,421.112 188.5,406C 173.834,395.335 163.834,381.335 158.5,364C 158.667,363.5 158.833,363 159,362.5C 164.486,366.824 170.32,369.824 176.5,371.5C 158.846,341.348 151.679,309.015 155,274.5C 171.209,255.96 187.043,237.126 202.5,218C 218.736,214.897 235.069,213.73 251.5,214.5C 254.345,234.868 256.512,255.201 258,275.5C 274.098,263.269 287.432,248.602 298,231.5C 299.133,238.733 299.633,246.066 299.5,253.5C 299.249,261.865 299.082,270.198 299,278.5C 303.292,272.248 306.792,265.582 309.5,258.5C 321.696,228.332 328.862,196.998 331,164.5C 335,169.167 339,173.833 343,178.5C 351.74,192.811 359.573,207.645 366.5,223C 355.207,220.481 343.707,218.648 332,217.5C 330.5,217.667 329,217.833 327.5,218C 327.043,218.414 326.709,218.914 326.5,219.5C 341.133,221.034 355.3,224.367 369,229.5C 376.138,246.746 381.971,264.413 386.5,282.5C 363.437,278.024 340.77,274.358 318.5,271.5C 313.179,272.253 311.846,274.753 314.5,279C 317.377,280.127 320.377,280.794 323.5,281C 322,282.5 320.5,284 319,285.5C 312.178,296.463 313.011,306.963 321.5,317C 335.473,326.631 350.139,327.631 365.5,320C 374.857,310.139 375.857,299.639 368.5,288.5C 369.333,288.167 370.167,287.833 371,287.5C 375.736,289.113 380.569,289.613 385.5,289C 386.071,287.795 386.738,286.628 387.5,285.5C 389.259,291.382 390.593,297.382 391.5,303.5C 390.732,314.814 390.232,326.147 390,337.5C 384.977,351.874 379.144,365.874 372.5,379.5C 378.36,378.301 383.526,375.301 388,370.5C 388.358,379.759 385.692,388.093 380,395.5C 370.369,406.562 358.869,415.062 345.5,421C 323.385,430.056 300.385,434.556 276.5,434.5 Z"/></g>
<g><path style="opacity:0.999" fill="#4f3834" d="M 122.5,417.5 C 120.246,416.876 118.579,415.543 117.5,413.5C 115.652,404.109 113.486,394.775 111,385.5C 104.156,382.179 98.8224,377.179 95,370.5C 87.0053,354.872 85.0053,338.539 89,321.5C 91.4655,316.064 94.2988,310.897 97.5,306C 95.5974,286.044 95.9307,266.044 98.5,246C 99.8909,220.864 105.724,196.698 116,173.5C 123.467,156.715 133.967,142.215 147.5,130C 148.5,129.333 149.5,129.333 150.5,130C 130.12,149.914 116.286,173.747 109,201.5C 104.308,224.111 101.475,246.944 100.5,270C 101.369,292.896 103.203,315.729 106,338.5C 110.074,365.128 115.574,391.461 122.5,417.5 Z"/></g>
<g><path style="opacity:1" fill="#59423e" d="M 403.5,239.5 C 402.293,242.941 402.293,246.441 403.5,250C 403.333,250.833 403.167,251.667 403,252.5C 402.768,251.263 402.268,250.263 401.5,249.5C 400.447,216.288 392.614,184.621 378,154.5C 375.667,150.5 373.333,146.5 371,142.5C 368.167,139 365.333,135.5 362.5,132C 365.093,132.546 367.26,134.046 369,136.5C 390.749,167.247 402.249,201.58 403.5,239.5 Z"/></g>
<g><path style="opacity:1" fill="#533c38" d="M 448.5,250.5 C 448.666,256.509 448.499,262.509 448,268.5C 447.768,267.263 447.268,266.263 446.5,265.5C 447.058,244.122 444.058,223.289 437.5,203C 437.833,202.5 438.167,202 438.5,201.5C 445.372,217.05 448.705,233.383 448.5,250.5 Z"/></g>
<g><path style="opacity:1" fill="#a18b87" d="M 403.5,239.5 C 404.82,247.343 404.82,255.343 403.5,263.5C 402.914,263.709 402.414,264.043 402,264.5C 401.501,259.511 401.334,254.511 401.5,249.5C 402.268,250.263 402.768,251.263 403,252.5C 403.167,251.667 403.333,250.833 403.5,250C 402.293,246.441 402.293,242.941 403.5,239.5 Z"/></g>
<g><path style="opacity:0.997" fill="#4f3733" d="M 168.5,196.5 C 165.534,202.885 163.034,209.552 161,216.5C 157.088,232.637 154.255,248.971 152.5,265.5C 152.833,266.833 153.167,268.167 153.5,269.5C 162.598,261.74 170.598,253.073 177.5,243.5C 183.642,236.558 189.308,229.225 194.5,221.5C 194,221.167 193.5,220.833 193,220.5C 186.081,222.212 179.581,224.878 173.5,228.5C 171.899,227.965 171.399,226.965 172,225.5C 180.264,219.621 189.43,215.788 199.5,214C 215.403,193.042 228.903,170.542 240,146.5C 241.011,145.663 242.178,145.33 243.5,145.5C 247.756,175.277 252.589,204.944 258,234.5C 258.667,214.167 258.667,193.833 258,173.5C 256.377,157.205 255.544,140.872 255.5,124.5C 257.424,133.717 258.924,143.717 260,154.5C 260.167,177.527 261.001,200.527 262.5,223.5C 261.008,238.495 260.675,253.495 261.5,268.5C 266.78,264.722 271.614,260.389 276,255.5C 289.729,238.048 300.895,219.048 309.5,198.5C 309.833,198.667 310.167,198.833 310.5,199C 307.034,206.731 304.368,214.731 302.5,223C 303.612,237.175 303.778,251.342 303,265.5C 304.801,262.563 306.301,259.563 307.5,256.5C 307.5,257.833 308.167,258.5 309.5,258.5C 306.792,265.582 303.292,272.248 299,278.5C 299.082,270.198 299.249,261.865 299.5,253.5C 299.633,246.066 299.133,238.733 298,231.5C 287.432,248.602 274.098,263.269 258,275.5C 256.512,255.201 254.345,234.868 251.5,214.5C 235.069,213.73 218.736,214.897 202.5,218C 187.043,237.126 171.209,255.96 155,274.5C 151.679,309.015 158.846,341.348 176.5,371.5C 170.32,369.824 164.486,366.824 159,362.5C 158.833,363 158.667,363.5 158.5,364C 163.834,381.335 173.834,395.335 188.5,406C 210.384,421.112 234.384,430.946 260.5,435.5C 255.797,435.563 251.13,435.229 246.5,434.5C 246.666,442.174 246.5,449.841 246,457.5C 245.308,458.025 244.808,458.692 244.5,459.5C 246.11,461.725 247.443,464.059 248.5,466.5C 246.833,466.5 245.167,466.5 243.5,466.5C 241.887,463.714 240.054,461.047 238,458.5C 235.755,455.119 235.088,451.452 236,447.5C 237.242,446.128 238.742,445.128 240.5,444.5C 241.452,442.955 241.785,441.288 241.5,439.5C 235.931,439.287 230.598,440.287 225.5,442.5C 224.431,445.539 223.265,448.539 222,451.5C 219.502,453.417 216.835,455.084 214,456.5C 213.392,458.154 212.892,459.821 212.5,461.5C 209.572,461.435 206.905,460.768 204.5,459.5C 208.767,456.14 213.267,452.807 218,449.5C 218.451,444.43 220.618,440.264 224.5,437C 229.678,435.202 235.011,434.202 240.5,434C 218.953,427.892 198.953,418.559 180.5,406C 176.333,401.833 172.167,397.667 168,393.5C 171.599,412.756 175.099,432.089 178.5,451.5C 176.632,450.737 174.965,449.737 173.5,448.5C 169.719,415.375 161.552,383.375 149,352.5C 138.745,342.807 130.578,331.64 124.5,319C 125.449,318.383 126.282,318.549 127,319.5C 136.455,336.792 149.288,351.126 165.5,362.5C 165.833,362.167 166.167,361.833 166.5,361.5C 163.45,356.068 160.95,350.402 159,344.5C 155.496,330.763 152.663,317.096 150.5,303.5C 150.588,286.867 150.588,270.201 150.5,253.5C 151.541,247.501 152.874,241.334 154.5,235C 158.42,207.537 167.92,182.037 183,158.5C 193.124,143.376 205.624,130.542 220.5,120C 221.5,119.333 222.5,119.333 223.5,120C 220.672,122.248 217.672,124.248 214.5,126C 193.306,145.69 177.973,169.19 168.5,196.5 Z"/></g>
<g><path style="opacity:0.988" fill="#897369" d="M 223.5,257.5 C 231.343,256.18 239.343,256.18 247.5,257.5C 239.507,258.56 231.507,258.56 223.5,257.5 Z"/></g>
<g><path style="opacity:1" fill="#f1b3af" d="M 168.5,196.5 C 167.278,203.626 165.445,210.626 163,217.5C 162.65,225.583 161.65,233.583 160,241.5C 159.333,247.833 159.333,254.167 160,260.5C 165.477,255.354 170.644,249.854 175.5,244C 176.094,243.536 176.761,243.369 177.5,243.5C 170.598,253.073 162.598,261.74 153.5,269.5C 153.167,268.167 152.833,266.833 152.5,265.5C 154.255,248.971 157.088,232.637 161,216.5C 163.034,209.552 165.534,202.885 168.5,196.5 Z"/></g>
<g><path style="opacity:1" fill="#f8e6d2" d="M 246.5,193.5 C 248.463,199.351 249.796,205.351 250.5,211.5C 246.297,210.127 241.964,209.46 237.5,209.5C 231.179,210.11 224.845,210.444 218.5,210.5C 217.127,210.657 215.793,210.49 214.5,210C 216.081,209.293 217.581,208.46 219,207.5C 225.499,198.506 231.499,189.173 237,179.5C 238.11,177.963 239.61,177.297 241.5,177.5C 242.116,181.863 242.95,186.197 244,190.5C 244.377,191.942 245.21,192.942 246.5,193.5 Z"/></g>
<g><path style="opacity:1" fill="#ecdac7" d="M 246.5,193.5 C 245.21,192.942 244.377,191.942 244,190.5C 242.95,186.197 242.116,181.863 241.5,177.5C 239.61,177.297 238.11,177.963 237,179.5C 231.499,189.173 225.499,198.506 219,207.5C 217.581,208.46 216.081,209.293 214.5,210C 215.793,210.49 217.127,210.657 218.5,210.5C 214.677,211.645 210.677,212.145 206.5,212C 219.124,194.594 230.624,176.427 241,157.5C 242.899,169.496 244.733,181.496 246.5,193.5 Z"/></g>
<g><path style="opacity:1" fill="#f7b7b3" d="M 255.5,124.5 C 255.544,140.872 256.377,157.205 258,173.5C 258.667,193.833 258.667,214.167 258,234.5C 252.589,204.944 247.756,175.277 243.5,145.5C 246.22,137.721 250.22,130.721 255.5,124.5 Z"/></g>
<g><path style="opacity:1" fill="#604943" d="M 322.5,259.5 C 328.651,261.42 334.984,262.92 341.5,264C 342.672,264.419 343.672,265.085 344.5,266C 336.717,265.307 329.051,263.807 321.5,261.5C 321.863,260.817 322.196,260.15 322.5,259.5 Z"/></g>
<g><path style="opacity:1" fill="#4c3631" d="M 210.5,266.5 C 223.171,266.333 235.838,266.5 248.5,267C 249.423,269.041 249.756,271.208 249.5,273.5C 242.045,273.596 234.712,273.762 227.5,274C 238.31,286.563 237.976,298.896 226.5,311C 223.205,313.434 219.538,315.101 215.5,316C 208.5,316.667 201.5,316.667 194.5,316C 175.319,309.467 169.986,296.967 178.5,278.5C 173.198,277.671 167.864,277.171 162.5,277C 161.428,274.324 162.095,271.991 164.5,270C 179.486,269.035 194.486,268.368 209.5,268C 210.056,267.617 210.389,267.117 210.5,266.5 Z"/></g>
<g><path style="opacity:1" fill="#99827f" d="M 448.5,250.5 C 449.465,260.336 449.465,270.336 448.5,280.5C 447.833,281.5 447.167,282.5 446.5,283.5C 446.5,277.5 446.5,271.5 446.5,265.5C 447.268,266.263 447.768,267.263 448,268.5C 448.499,262.509 448.666,256.509 448.5,250.5 Z"/></g>
<g><path style="opacity:0.999" fill="#f3eaea" d="M 206.5,275.5 C 225.667,273.172 233.167,281.505 229,300.5C 224.988,307.844 218.821,312.01 210.5,313C 200.25,315.281 191.417,312.781 184,305.5C 175.49,283.197 182.99,273.197 206.5,275.5 Z"/></g>
<g><path style="opacity:1" fill="#f3eaea" d="M 330.5,282.5 C 341.391,282.621 352.058,284.121 362.5,287C 369.835,295.828 370.335,304.995 364,314.5C 349.211,324.883 335.544,323.549 323,310.5C 319.667,303.833 319.667,297.167 323,290.5C 325.705,287.964 328.205,285.297 330.5,282.5 Z"/></g>
<g><path style="opacity:0.09" fill="#4a2d26" d="M 68.5,294.5 C 70.4759,295.427 70.8092,296.76 69.5,298.5C 68.5713,297.311 68.238,295.978 68.5,294.5 Z"/></g>
<g><path style="opacity:0.997" fill="#f3e1ce" d="M 96.5,315.5 C 101.948,336.111 105.781,357.111 108,378.5C 95.1396,364.759 89.8063,348.426 92,329.5C 93.2074,324.712 94.7074,320.045 96.5,315.5 Z"/></g>
<g><path style="opacity:1" fill="#5a443e" d="M 281.5,316.5 C 282.833,316.5 284.167,316.5 285.5,316.5C 285.5,317.5 285.5,318.5 285.5,319.5C 284.167,319.5 282.833,319.5 281.5,319.5C 281.5,318.5 281.5,317.5 281.5,316.5 Z"/></g>
<g><path style="opacity:1" fill="#e6bfb4" d="M 182.5,323.5 C 184.584,324.248 186.584,324.248 188.5,323.5C 193.282,325.723 198.282,327.223 203.5,328C 205.091,330.133 207.091,331.799 209.5,333C 207.819,334.945 207.152,336.945 207.5,339C 206.672,339.915 205.672,340.581 204.5,341C 204.833,341.333 205.167,341.667 205.5,342C 203.091,343.201 201.091,344.867 199.5,347C 194.659,347.351 189.992,348.184 185.5,349.5C 183.833,349.333 182.167,349.167 180.5,349C 176.91,346.411 173.243,343.911 169.5,341.5C 166.861,337.519 167.194,333.686 170.5,330C 170.167,329.667 169.833,329.333 169.5,329C 170.833,328 172.167,327 173.5,326C 176.851,325.943 179.851,325.109 182.5,323.5 Z"/></g>
<g><path style="opacity:1" fill="#e6bfb4" d="M 360.5,333.5 C 361.735,333.721 362.735,334.388 363.5,335.5C 364.167,335.167 364.833,334.833 365.5,334.5C 368.565,336.39 371.899,337.557 375.5,338C 377.555,340.055 379.888,341.721 382.5,343C 382.182,345.042 382.015,347.209 382,349.5C 381.55,352.106 380.05,353.439 377.5,353.5C 377.5,354.5 377.5,355.5 377.5,356.5C 375.274,357.96 373.107,358.96 371,359.5C 370,359.167 369,358.833 368,358.5C 365.728,359.791 363.561,360.457 361.5,360.5C 359.866,360.032 358.7,359.032 358,357.5C 354.872,358.942 352.038,358.442 349.5,356C 350.28,354.927 350.113,353.76 349,352.5C 345.927,351.761 343.76,349.928 342.5,347C 342.833,346.667 343.167,346.333 343.5,346C 342.5,345.167 341.5,344.333 340.5,343.5C 340.846,342.304 341.346,342.304 342,343.5C 342.309,342.234 342.809,341.067 343.5,340C 343.167,339 342.833,338 342.5,337C 344.298,335.495 346.132,335.328 348,336.5C 348.605,334.519 349.605,334.185 351,335.5C 354.27,334.868 357.437,334.201 360.5,333.5 Z"/></g>
<g><path style="opacity:1" fill="#513b36" d="M 223.5,342.5 C 224.496,342.414 225.329,342.748 226,343.5C 226.768,370.212 239.934,387.378 265.5,395C 287.675,396.33 304.508,387.496 316,368.5C 318.513,362.771 319.679,356.771 319.5,350.5C 321.167,350.5 322.833,350.5 324.5,350.5C 325.055,357.947 323.555,364.947 320,371.5C 299.5,398.909 274,404.742 243.5,389C 228.69,377.879 221.523,363.045 222,344.5C 222.717,343.956 223.217,343.289 223.5,342.5 Z"/></g>
<g><path style="opacity:0.996" fill="#ebd6d3" d="M 418.5,351.5 C 419.825,365.438 421.492,379.438 423.5,393.5C 414.42,405.249 403.753,415.249 391.5,423.5C 390.884,414.351 389.384,405.351 387,396.5C 384.33,399.187 382.164,402.187 380.5,405.5C 382.507,412.518 384.507,419.518 386.5,426.5C 386.5,427.167 386.167,427.5 385.5,427.5C 383.011,420.022 380.678,412.355 378.5,404.5C 383.212,399.28 387.379,393.613 391,387.5C 392.963,380.994 393.963,374.327 394,367.5C 394.383,366.944 394.883,366.611 395.5,366.5C 396.062,368.257 396.062,370.257 395.5,372.5C 395.833,373.833 396.167,375.167 396.5,376.5C 404.6,368.74 411.933,360.407 418.5,351.5 Z"/></g>
<g><path style="opacity:1" fill="#ecb1ad" d="M 418.5,351.5 C 411.933,360.407 404.6,368.74 396.5,376.5C 396.167,375.167 395.833,373.833 395.5,372.5C 396.062,370.257 396.062,368.257 395.5,366.5C 402.8,359.173 410.133,351.84 417.5,344.5C 418.474,346.743 418.808,349.076 418.5,351.5 Z"/></g>
<g><path style="opacity:0.982" fill="#f2b4b0" d="M 391.5,423.5 C 390.101,424.89 388.434,425.89 386.5,426.5C 384.507,419.518 382.507,412.518 380.5,405.5C 382.164,402.187 384.33,399.187 387,396.5C 389.384,405.351 390.884,414.351 391.5,423.5 Z"/></g>
<g><path style="opacity:0.988" fill="#e3cecb" d="M 380.5,431.5 C 372.792,436.354 364.792,440.688 356.5,444.5C 355.734,436.509 355.567,428.509 356,420.5C 362.279,416.554 368.279,412.221 374,407.5C 377.056,415.273 379.223,423.273 380.5,431.5 Z"/></g>
<g><path style="opacity:0.996" fill="#dca39f" d="M 204.5,459.5 C 195.642,457.436 186.975,454.769 178.5,451.5C 175.099,432.089 171.599,412.756 168,393.5C 172.167,397.667 176.333,401.833 180.5,406C 198.953,418.559 218.953,427.892 240.5,434C 235.011,434.202 229.678,435.202 224.5,437C 220.618,440.264 218.451,444.43 218,449.5C 213.267,452.807 208.767,456.14 204.5,459.5 Z"/></g>
<g><path style="opacity:0.988" fill="#e4a9a5" d="M 353.5,446.5 C 342.479,451.619 331.146,455.952 319.5,459.5C 316.836,456.734 314.003,454.067 311,451.5C 309.907,444.593 306.074,440.26 299.5,438.5C 300.833,437.833 302.167,437.167 303.5,436.5C 320.231,434.317 336.231,429.651 351.5,422.5C 352.498,430.476 353.165,438.476 353.5,446.5 Z"/></g>
<g><path style="opacity:0.995" fill="#cda28c" d="M 260.5,435.5 C 262.467,435.261 264.301,435.594 266,436.5C 269.149,434.638 272.649,433.971 276.5,434.5C 273.642,435.166 270.642,435.833 267.5,436.5C 268.025,437.192 268.692,437.692 269.5,438C 276.002,437.866 281.836,439.699 287,443.5C 287.333,450.167 287.667,456.833 288,463.5C 288.717,464.044 289.217,464.711 289.5,465.5C 275.824,466.782 262.157,467.115 248.5,466.5C 247.443,464.059 246.11,461.725 244.5,459.5C 244.808,458.692 245.308,458.025 246,457.5C 246.5,449.841 246.666,442.174 246.5,434.5C 251.13,435.229 255.797,435.563 260.5,435.5 Z"/></g>
<g><path style="opacity:1" fill="#976e6a" d="M 303.5,436.5 C 302.167,437.167 300.833,437.833 299.5,438.5C 296.373,438.876 293.373,438.876 290.5,438.5C 294.749,437.274 299.083,436.607 303.5,436.5 Z"/></g>
<g><path style="opacity:0.991" fill="#c3c9cb" d="M 243.5,466.5 C 232.973,465.801 222.64,464.134 212.5,461.5C 212.892,459.821 213.392,458.154 214,456.5C 216.835,455.084 219.502,453.417 222,451.5C 223.265,448.539 224.431,445.539 225.5,442.5C 230.598,440.287 235.931,439.287 241.5,439.5C 241.785,441.288 241.452,442.955 240.5,444.5C 238.742,445.128 237.242,446.128 236,447.5C 235.088,451.452 235.755,455.119 238,458.5C 240.054,461.047 241.887,463.714 243.5,466.5 Z"/></g>
<g><path style="opacity:0.991" fill="#c2c7c9" d="M 312.5,460.5 C 307.047,462.278 301.381,463.612 295.5,464.5C 295.666,460.486 295.499,456.486 295,452.5C 292.093,450.267 290.926,447.267 291.5,443.5C 300.144,442.808 304.81,446.808 305.5,455.5C 308.643,455.969 310.977,457.636 312.5,460.5 Z"/></g>
</svg>
